<?xml version="1.0" standalone="no"?>
<!DOCTYPE svg PUBLIC "-//W3C//DTD SVG 1.1//EN" "http://www.w3.org/Graphics/SVG/1.1/DTD/svg11.dtd" >
<svg xmlns="http://www.w3.org/2000/svg">
<metadata>
This is a custom SVG webfont generated by Font Squirrel.
Designer    : Robert Slimbach and Carol Twombly
Foundry URL : http://www.adobe.com/type
</metadata>
<defs>
<font id="webfontTQ8DxsqV" horiz-adv-x="426" >
<font-face units-per-em="1000" ascent="750" descent="-250" />
<missing-glyph horiz-adv-x="159" />
<glyph unicode=" "  horiz-adv-x="159" />
<glyph unicode="&#x09;" horiz-adv-x="159" />
<glyph unicode="&#xa0;" horiz-adv-x="159" />
<glyph unicode="!" horiz-adv-x="236" d="M174 219h-112l-15 455h143zM119 -8h-1q-32 0 -53.5 23t-21.5 57q0 36 22 58.5t53 22.5q33 0 54 -22.5t21 -58.5q0 -35 -20.5 -57.5t-53.5 -22.5z" />
<glyph unicode="&#x22;" horiz-adv-x="331" d="M33 684h105l-20 -260h-65zM193 684h106l-21 -260h-64z" />
<glyph unicode="#" d="M171 270h71l14 115h-71zM137 0h-75l25 195h-72v75h82l14 115h-75v75h85l23 190h74l-23 -190h71l24 190h74l-24 -190h71v-75h-80l-15 -115h75v-75h-84l-25 -195h-75l25 195h-71z" />
<glyph unicode="$" d="M247 -85h-85v102q-62 1 -107 26l20 103q48 -28 104 -28q35 0 54.5 18.5t19.5 47.5q0 54 -77 102q-62 39 -91 78.5t-29 95.5q0 57 32 100.5t88 62.5v102h85v-92q53 0 99 -25l-22 -100q-44 25 -87 25q-34 0 -53 -17.5t-19 -44.5q0 -26 16 -45t66 -50q114 -68 114 -180 q0 -66 -34.5 -111t-93.5 -59v-111z" />
<glyph unicode="%" horiz-adv-x="657" d="M150 658h1q45 0 75 -31.5t41 -73.5t11 -92q0 -97 -37.5 -149t-91.5 -52q-64 0 -97.5 58t-33.5 138q0 84 35.5 143t96.5 59zM149 588h-1q-42 0 -42 -128v-11q0 -120 43 -120q41 0 41 129q0 130 -41 130zM187 -10h-68l350 669h68zM511 392h1q45 0 75 -31.5t41 -73.5t11 -91 q0 -98 -37.5 -150t-91.5 -52q-64 0 -97.5 58.5t-33.5 138.5q0 83 35.5 142t96.5 59zM510 323h-1q-42 0 -42 -129v-11q0 -119 43 -119q41 0 41 129q0 130 -41 130z" />
<glyph unicode="&#x26;" horiz-adv-x="530" d="M526 0h-143l-13 18l-19 26q-59 -52 -146 -52q-85 0 -135.5 54t-50.5 135q0 117 106 185v2q-50 69 -50 146q0 71 46 119.5t123 48.5q65 0 106.5 -41.5t41.5 -109.5q0 -51 -24 -93.5t-92 -89.5v-4q70 -106 99 -143q26 49 30 158h111q-15 -154 -85 -238zM229 89h1 q42 0 69 32q-35 43 -122 169q-38 -38 -38 -93q0 -45 25 -76.5t65 -31.5zM239 595h-1q-22 0 -34.5 -21.5t-12.5 -54.5q0 -51 33 -100q58 46 58 106q0 70 -43 70z" />
<glyph unicode="'" horiz-adv-x="170" d="M33 684h105l-20 -260h-65z" />
<glyph unicode="(" horiz-adv-x="258" d="M147 692h94q-106 -166 -106 -408q0 -232 106 -404h-94q-49 65 -82 168.5t-33 236.5q3 136 35.5 239.5t79.5 167.5z" />
<glyph unicode=")" horiz-adv-x="258" d="M111 -120h-94q106 168 106 408q0 236 -106 404h94q115 -150 115 -404q-5 -255 -115 -408z" />
<glyph unicode="*" horiz-adv-x="385" d="M245 682l82 -46l-99 -117l1 -3l141 26v-91l-142 26l-1 -3l100 -113l-84 -47l-53 144l-2 -3l-57 -142l-75 47l99 119l-2 1l-138 -29v91l136 -26l3 3l-98 115l82 47l53 -141h3z" />
<glyph unicode="+" horiz-adv-x="596" d="M256 532h84v-224h216v-82h-216v-226h-84v226h-216v82h216v224z" />
<glyph unicode="," horiz-adv-x="233" d="M94 -116l-84 -9q50 143 67 266l133 10q-57 -170 -116 -267z" />
<glyph unicode="-" horiz-adv-x="259" d="M30 323h199v-94h-199v94z" />
<glyph unicode="." horiz-adv-x="233" d="M124 -8h-1q-31 0 -53 24t-22 63q0 37 23 62t54 25q32 0 54 -24t22 -63q0 -40 -21 -63.5t-56 -23.5z" />
<glyph unicode="/" horiz-adv-x="280" d="M63 -40h-85l234 722h86z" />
<glyph unicode="0" d="M218 658q54 0 92 -29t57.5 -79t27.5 -104t8 -118q0 -167 -53 -251.5t-137 -84.5q-51 0 -89 27.5t-59.5 75.5t-31.5 104.5t-10 122.5q0 149 49 242.5t146 93.5zM216 546q-61 0 -61 -214v-7v-19q0 -202 61 -202q30 0 42.5 53t12.5 168q0 221 -55 221z" />
<glyph unicode="1" d="M179 0v527h-2l-110 -57l-22 103l149 77h115v-650h-130z" />
<glyph unicode="2" d="M380 0h-356v88l65 83q54 68 80 105t49.5 88.5t23.5 95.5q0 40 -21.5 64.5t-61.5 24.5q-45 0 -98 -33l-23 102q63 40 145 40q98 0 143 -54t45 -134q0 -82 -40 -153t-111 -154l-39 -45v-2h199v-116z" />
<glyph unicode="3" d="M24 21l19 103q43 -25 97 -25q46 0 72 26t26 68q0 51 -34 77t-88 26h-18v96h13q43 1 76.5 21t33.5 63q0 35 -20.5 55t-55.5 20q-40 0 -82 -26l-17 99q54 34 134 34q81 0 126 -45.5t45 -111.5q0 -48 -25 -87t-68 -59v-2q50 -17 80.5 -59.5t30.5 -105.5q0 -80 -58.5 -138 t-158.5 -58q-75 0 -128 29z" />
<glyph unicode="4" d="M350 0h-116v155h-223v90l213 405h126v-390h65v-105h-65v-155zM122 260h112v133q0 28 7 107h-4q-20 -48 -45 -101l-70 -137v-2z" />
<glyph unicode="5" d="M365 650v-114h-172l-15 -116h20q73 -3 122 -49q56 -54 56 -149q0 -98 -61 -164t-165 -66q-74 0 -122 26l20 104q46 -23 93 -23q49 0 77.5 29.5t28.5 81.5q0 61 -39.5 88.5t-101.5 27.5q-33 0 -46 -2l36 326h269z" />
<glyph unicode="6" d="M355 658v-106q-28 -2 -54 -7q-116 -26 -145 -173h3q39 52 100 52q66 0 106.5 -55t40.5 -147q0 -94 -48 -162t-137 -68q-92 0 -145 73t-53 195q0 189 107 303q63 70 159 88q19 4 66 7zM219 87h1q57 0 57 136q-1 45 -16 76t-45 31q-35 0 -53 -44q-7 -12 -7 -57 q0 -64 17 -103t46 -39z" />
<glyph unicode="7" d="M39 650h354v-86l-204 -564h-128l200 532v2h-222v116z" />
<glyph unicode="8" d="M118 342v2q-40 26 -60 64.5t-20 78.5q0 77 53 124t131 47q71 0 119.5 -44.5t48.5 -115.5q0 -90 -85 -144v-2q46 -25 73 -69.5t27 -100.5q0 -87 -56 -138.5t-139 -51.5q-84 0 -137 49t-53 128q0 110 98 173zM215 80q30 0 46.5 27t16.5 70q0 81 -75 120q-56 -39 -56 -113 q0 -44 18 -74t50 -30zM217 570q-27 0 -41.5 -23t-14.5 -56q0 -64 64 -98q20 11 32.5 37.5t12.5 55.5q0 36 -13 60t-40 24z" />
<glyph unicode="9" d="M74 -8v109q32 0 60 5q44 9 76 39q47 45 63 131h-3q-37 -40 -93 -40q-65 0 -109 53.5t-44 140.5q0 90 52.5 159t141.5 69q88 0 136 -73t48 -194q0 -200 -107 -314q-62 -66 -160 -82q-21 -3 -61 -3zM211 563h-1q-26 0 -42 -33q-15 -30 -15 -82v-7q1 -50 16.5 -82.5 t44.5 -32.5q16 0 30 10t20 24q6 16 6 69q0 63 -16 98.5t-43 35.5z" />
<glyph unicode=":" horiz-adv-x="233" d="M124 320h-1q-30 0 -51 23t-21 59q0 35 22 59.5t52 24.5q32 0 53 -23t21 -61q0 -36 -20.5 -59t-54.5 -23zM124 -8h-1q-30 0 -51 23.5t-21 59.5q0 34 22 58.5t52 24.5q32 0 53 -23t21 -60t-20.5 -60t-54.5 -23z" />
<glyph unicode=";" horiz-adv-x="233" d="M91 -116l-80 -9q50 143 67 266l129 10q-57 -170 -116 -267zM129 320h-1q-30 0 -51 23t-21 59q0 35 21.5 59.5t52.5 24.5q32 0 53 -23t21 -61q0 -36 -20.5 -59t-54.5 -23z" />
<glyph unicode="&#x3c;" horiz-adv-x="596" d="M58 235v62l480 235v-102l-352 -164v-2l352 -163v-101z" />
<glyph unicode="=" horiz-adv-x="596" d="M556 320h-516v82h516v-82zM556 133h-516v82h516v-82z" />
<glyph unicode="&#x3e;" horiz-adv-x="596" d="M538 310v-88l-480 -222v99l384 166v2l-384 166v99z" />
<glyph unicode="?" horiz-adv-x="334" d="M199 211h-111l-2 18q-1 9 -1 19q0 66 54 151q43 64 43 112q0 28 -18 45t-48 17q-40 0 -64 -18l-22 101q45 30 117 30q47 0 81.5 -14.5t52.5 -38t26.5 -49t8.5 -52.5q0 -32 -13 -67t-25 -55t-36 -55q-44 -67 -43 -123v-21zM145 -8h-1q-32 0 -53 23t-21 57q0 36 22 58.5 t52 23.5q33 0 54 -23t21 -59q0 -35 -20 -57.5t-54 -22.5z" />
<glyph unicode="@" horiz-adv-x="621" d="M348 232l23 130q-9 5 -26 5q-37 0 -68.5 -52t-31.5 -125q0 -55 35 -55q22 0 42 29.5t26 67.5zM426 -17l15 -42q-69 -40 -159 -40q-102 0 -176.5 79.5t-74.5 220.5q0 156 91.5 274t232.5 118q114 0 175 -75t61 -184q0 -128 -42 -198.5t-116 -70.5q-73 0 -73 85h-3 q-18 -40 -47.5 -62.5t-62.5 -22.5q-40 0 -63 32.5t-23 87.5q0 99 56.5 171t150.5 72q54 0 93 -21l-34 -184q-5 -30 -5 -51q0 -52 33 -52t57.5 53t24.5 147q0 102 -48 165t-145 63q-103 0 -180.5 -98t-77.5 -249q0 -123 58 -188.5t152 -65.5q67 0 130 36z" />
<glyph unicode="A" horiz-adv-x="458" d="M286 154h-121l-30 -154h-127l146 674h157l131 -674h-127zM178 256h96l-22 141q-7 43 -22 153h-3q-24 -152 -24 -154z" />
<glyph unicode="B" horiz-adv-x="483" d="M58 2v662q58 13 149 13q115 0 171 -48q51 -43 51 -122q0 -47 -25 -86.5t-73 -60.5v-4q57 -16 88.5 -60t31.5 -101q0 -80 -50 -132q-62 -68 -221 -68q-70 0 -122 7zM189 575v-178h28q35 0 59 27t24 68q0 39 -19 63t-58 24q-23 0 -34 -4zM189 300v-202q8 -2 29 -2 q42 0 69.5 26t27.5 75q0 48 -28.5 75t-69.5 28h-28z" />
<glyph unicode="C" horiz-adv-x="395" d="M368 120l13 -110q-34 -16 -102 -16q-124 0 -189 91.5t-65 241.5q0 91 23.5 161.5t63.5 111t87 60.5t98 20q65 0 91 -18l-22 -110q-28 13 -61 13q-61 0 -101 -57t-40 -174q0 -115 38.5 -169.5t102.5 -54.5q31 0 63 10z" />
<glyph unicode="D" horiz-adv-x="491" d="M58 2v662q54 13 133 13q123 0 187 -60q88 -79 88 -272q0 -202 -94 -285q-66 -65 -206 -65q-47 0 -108 7zM189 569v-465q6 -2 23 -2q52 0 85 59t33 189q0 222 -115 222q-18 0 -26 -3z" />
<glyph unicode="E" horiz-adv-x="394" d="M343 405v-109h-154v-182h174v-114h-305v674h293v-114h-162v-155h154z" />
<glyph unicode="F" horiz-adv-x="392" d="M58 0v674h293v-114h-162v-173h152v-109h-152v-278h-131z" />
<glyph unicode="G" horiz-adv-x="472" d="M432 378v-360q-58 -24 -140 -24q-113 0 -180 67q-87 84 -87 260v12q1 89 25.5 157.5t65.5 108.5t90.5 60.5t104.5 20.5q68 0 110 -20l-23 -113q-32 15 -77 15q-73 0 -116.5 -56.5t-43.5 -180.5q0 -113 36 -166.5t88 -53.5q19 0 26 3v163h-60v107h181z" />
<glyph unicode="H" horiz-adv-x="515" d="M58 674h131v-270h137v270h131v-674h-131v282h-137v-282h-131v674z" />
<glyph unicode="I" horiz-adv-x="248" d="M58 674h131v-674h-131v674z" />
<glyph unicode="J" horiz-adv-x="296" d="M115 209v465h132v-459q0 -70 -15.5 -116.5t-44.5 -68.5t-59 -30t-71 -8t-66 10l11 110q22 -5 43 -5q33 0 51.5 21t18.5 81z" />
<glyph unicode="K" horiz-adv-x="459" d="M58 0v674h131v-303h2l33 87l90 216h144l-151 -293l153 -381h-143l-98 279l-30 -55v-224h-131z" />
<glyph unicode="L" horiz-adv-x="380" d="M58 0v674h131v-563h173v-111h-304z" />
<glyph unicode="M" horiz-adv-x="637" d="M482 0l-12 236q-6 130 -6 195v28h-3q-17 -105 -43 -207l-58 -241h-93l-56 237q-28 117 -41 211h-3q-3 -106 -10 -225l-11 -234h-113l49 674h138l54 -244q37 -164 48 -236h2q12 89 43 236l53 244h138l41 -674h-117z" />
<glyph unicode="N" horiz-adv-x="516" d="M173 0h-115v674h120l104 -264q53 -137 72 -197h2q-13 231 -13 312v149h115v-674h-120l-103 256q-50 129 -68 203h-2q8 -181 8 -308v-151z" />
<glyph unicode="O" horiz-adv-x="481" d="M247 682q47 0 84 -20t60 -52.5t38 -77t21 -89.5t6 -94q0 -183 -58.5 -270t-159.5 -87q-73 0 -122.5 49.5t-70 125t-20.5 172.5q0 95 24 171t75 124t123 48zM242 568q-39 0 -60 -61t-21 -170q0 -231 82 -231q76 0 76 237q0 225 -77 225z" />
<glyph unicode="P" horiz-adv-x="457" d="M58 0v664q60 13 137 13q127 0 183 -52q58 -51 58 -148q0 -100 -57 -162q-30 -31 -75 -47.5t-89 -16.5h-26v-251h-131zM189 566v-208q6 -2 21 -2q48 0 72 30t24 80q0 47 -21 76t-64 29q-19 0 -32 -5z" />
<glyph unicode="Q" horiz-adv-x="481" d="M487 -11l-46 -99q-85 35 -173 88q-26 14 -32 14q-99 0 -155 91.5t-56 255.5q0 145 58 244t165 99q58 0 100.5 -29.5t65 -80t32.5 -105.5t10 -118q0 -249 -101 -305v-5l41 -17q23 -9 50 -18zM242 106h1q76 0 76 237q0 225 -77 225q-39 0 -60 -64t-21 -164v-10 q0 -101 19 -161q20 -63 62 -63z" />
<glyph unicode="R" horiz-adv-x="470" d="M58 0v664q67 13 143 13q125 0 180 -50q53 -48 53 -140q0 -56 -26.5 -101t-77.5 -68v-2q62 -24 82 -133q25 -146 43 -183h-137q-17 39 -33 161q-9 62 -26 85t-51 23h-19v-269h-131zM189 571v-201h23q42 0 66 29.5t24 75.5q0 97 -82 100q-22 0 -31 -4z" />
<glyph unicode="S" horiz-adv-x="394" d="M24 21l19 113q47 -26 111 -26q45 0 68.5 21t23.5 55t-19.5 56.5t-67.5 53.5q-65 40 -96 89t-31 99q0 85 56 141.5t157 56.5q66 0 106 -24l-21 -113q-36 23 -86 23q-40 0 -61.5 -20.5t-21.5 -49.5q0 -30 19 -51t74 -54q122 -74 122 -193q0 -92 -62 -148t-161 -56 q-83 0 -129 27z" />
<glyph unicode="T" horiz-adv-x="393" d="M131 0v553h-119v121h370v-121h-120v-553h-131z" />
<glyph unicode="U" horiz-adv-x="500" d="M54 674h131v-438q0 -129 64 -129q31 0 48 28.5t17 100.5v438h131v-415q0 -131 -49 -199t-146 -68q-103 0 -149.5 67.5t-46.5 198.5v416z" />
<glyph unicode="V" horiz-adv-x="452" d="M299 0h-147l-151 674h145l48 -291q26 -158 35 -234h2q13 119 32 237l46 288h144z" />
<glyph unicode="W" horiz-adv-x="679" d="M258 0h-130l-115 674h136l33 -268q4 -35 8 -74t8 -87t7 -76h3q5 46 38 237l48 268h106l45 -266q24 -153 32 -239h2q11 111 26 238l33 267h128l-119 -674h-135l-40 220q-15 87 -30 222h-2q-23 -158 -37 -222z" />
<glyph unicode="X" horiz-adv-x="407" d="M411 0h-135l-43 124q-15 46 -36 120h-2l-32 -122l-36 -122h-130l126 345l-121 329h137l39 -125l18 -61q11 -39 13 -47h2l28 110l34 123h131l-126 -335z" />
<glyph unicode="Y" horiz-adv-x="402" d="M264 0h-131v258l-148 416h140l46 -161q23 -81 35 -143h2q10 63 31 146l40 158h136l-151 -411v-263z" />
<glyph unicode="Z" horiz-adv-x="387" d="M11 0v77l213 480v3h-193v114h341v-97l-204 -460v-3h203v-114h-360z" />
<glyph unicode="[" horiz-adv-x="258" d="M235 -112h-185v798h185v-84h-86v-630h86v-84z" />
<glyph unicode="\" horiz-adv-x="233" d="M255 -40h-85l-187 722h85z" />
<glyph unicode="]" horiz-adv-x="258" d="M23 686h185v-798h-185v84h86v630h-86v84z" />
<glyph unicode="^" horiz-adv-x="596" d="M552 177h-100l-152 361h-5l-152 -361h-99l212 473h84z" />
<glyph unicode="_" horiz-adv-x="500" d="M0 -75h500v-50h-500v50z" />
<glyph unicode="`" horiz-adv-x="300" d="M29 689h114l69 -140h-83z" />
<glyph unicode="a" horiz-adv-x="422" d="M375 294v-182q0 -68 8 -112h-118l-7 48h-2q-40 -56 -108 -56q-56 0 -92.5 42t-36.5 107q0 61 33.5 103.5t82.5 60t108 18.5v11q0 30 -18 48t-51 18q-55 0 -100 -28l-24 88q62 37 152 37q43 0 75 -12t50.5 -30.5t29.5 -46.5t14.5 -54.5t3.5 -59.5zM247 153v85 q-104 -2 -104 -83q0 -33 14.5 -50t32.5 -17q17 0 32.5 11t21.5 31q3 10 3 23z" />
<glyph unicode="b" horiz-adv-x="447" d="M45 145v547h131v-252h2q39 57 102 57q68 0 103 -67t35 -172q0 -125 -44.5 -195.5t-114.5 -70.5q-61 0 -96 66h-3l-7 -58h-112q4 86 4 145zM176 312v-137q0 -19 5 -31q14 -45 45 -45q62 0 62 149q0 139 -63 139q-14 0 -26 -13t-18 -32q-5 -13 -5 -30z" />
<glyph unicode="c" horiz-adv-x="323" d="M306 111l11 -103q-30 -14 -83 -14q-95 0 -150 64t-55 182q0 114 61.5 185t162.5 71q44 0 72 -13l-17 -103q-25 9 -49 9q-46 0 -73 -40t-27 -105q0 -67 26 -105t72 -38q29 0 49 10z" />
<glyph unicode="d" horiz-adv-x="447" d="M270 692h131v-547q0 -55 4 -145h-113l-7 55h-2q-14 -27 -42 -45t-60 -18q-74 0 -113 71.5t-39 180.5q0 121 45.5 187t111.5 66q61 0 82 -49h2v244zM270 172v129q0 19 -1 29q-4 24 -16.5 40.5t-30.5 16.5q-63 0 -63 -146q0 -68 17 -105t45 -37q32 0 45 43q4 9 4 30z" />
<glyph unicode="e" horiz-adv-x="419" d="M387 198h-232q3 -104 104 -104q47 0 93 16l18 -94q-58 -22 -135 -22q-99 0 -152.5 63t-53.5 178q0 120 55.5 191t140.5 71q79 0 122.5 -60t43.5 -171q0 -49 -4 -68zM156 290h116q0 112 -55 112q-29 0 -44.5 -34.5t-16.5 -77.5z" />
<glyph unicode="f" horiz-adv-x="286" d="M200 0h-131v396h-66v93h66v20q0 95 50 146q43 45 117 45q44 0 79 -11l-15 -102q-15 6 -40 6q-31 0 -45.5 -23t-14.5 -58v-23h85v-93h-85v-396z" />
<glyph unicode="g" horiz-adv-x="447" d="M402 334v-279q0 -145 -59 -201q-57 -54 -159 -54q-68 0 -122 23l24 101q48 -21 94 -21q92 0 92 119v30h-2q-27 -49 -88 -49q-52 0 -88 36t-50.5 87.5t-14.5 113.5q0 119 47 188t118 69q61 0 90 -57h2l7 49h114q-5 -110 -5 -155zM272 180v131q0 19 -5 36q-11 40 -42 40 q-33 0 -49.5 -40t-16.5 -104q0 -66 17 -101.5t46 -35.5q31 0 44 35q6 17 6 39z" />
<glyph unicode="h" horiz-adv-x="458" d="M46 0v692h131v-254h2q15 24 42 42q29 17 66 17q125 0 125 -200v-297h-131v297q0 90 -48 90q-37 0 -51 -46q-5 -20 -5 -37v-304h-131z" />
<glyph unicode="i" horiz-adv-x="223" d="M177 0h-131v489h131v-489zM110 690q29 0 48 -19.5t19 -51.5q1 -31 -19 -51t-50 -20q-28 0 -47 20t-18 51q-1 32 19 51.5t48 19.5z" />
<glyph unicode="j" horiz-adv-x="224" d="M-29 -200l-10 104q46 6 64 26q14 14 18 42t4 88v429h132v-454q0 -79 -16 -123t-49 -70q-52 -42 -143 -42zM113 690q29 0 48 -19.5t19 -51.5q0 -31 -19.5 -51t-49.5 -20q-28 0 -47 20t-18 51q-1 32 18.5 51.5t48.5 19.5z" />
<glyph unicode="k" horiz-adv-x="413" d="M176 692v-417h2q14 44 25 68l63 146h141l-118 -205l125 -284h-146l-70 201l-22 -42v-159h-131v692h131z" />
<glyph unicode="l" horiz-adv-x="225" d="M46 0v692h131v-692h-131z" />
<glyph unicode="m" horiz-adv-x="680" d="M46 0v342q0 31 -2 83t-2 64h114l6 -57h2q44 65 117 65q80 0 107 -66h2q19 30 49 49q31 17 69 17q126 0 126 -187v-310h-130v288q0 49 -9.5 75t-36.5 26q-35 0 -49 -45q-4 -14 -4 -34v-310h-130v307q0 82 -45 82q-35 0 -49 -44q-5 -15 -5 -37v-308h-130z" />
<glyph unicode="n" horiz-adv-x="458" d="M46 0v342q0 31 -2 83t-2 64h113l6 -56h2q43 64 119 64q130 0 130 -183v-314h-131v306q0 81 -48 81q-35 0 -49 -44q-7 -17 -7 -45v-298h-131z" />
<glyph unicode="o" horiz-adv-x="431" d="M218 497q86 0 135.5 -67.5t49.5 -183.5q0 -72 -18.5 -125t-48 -79.5t-59.5 -38t-61 -11.5q-88 0 -137.5 66t-49.5 185q0 124 55 189t134 65zM217 398q-58 0 -58 -152q0 -154 60 -154q53 0 53 154q0 152 -55 152z" />
<glyph unicode="p" horiz-adv-x="447" d="M45 -192v526q0 63 -4 155h114l7 -56h2q32 64 102 64q76 0 114 -71t38 -181q0 -123 -46 -188t-113 -65q-52 0 -81 48h-2v-232h-131zM176 310v-131q0 -28 7 -42q13 -38 42 -38q62 0 62 145q0 143 -61 143q-15 0 -27.5 -12.5t-16.5 -29.5q-6 -12 -6 -35z" />
<glyph unicode="q" horiz-adv-x="447" d="M271 -192v234h-2q-34 -50 -93 -50q-68 0 -107.5 69.5t-39.5 172.5q0 121 46.5 192t118.5 71q62 0 90 -59l2 -1l7 52h113q-4 -88 -4 -155v-526h-131zM271 174v136q0 18 -4 29q-5 22 -17.5 35t-27.5 13q-62 0 -62 -143q0 -68 16 -106.5t46 -38.5q32 0 44 43q5 14 5 32z" />
<glyph unicode="r" horiz-adv-x="294" d="M45 0v342q0 57 -4 147h114l7 -71h3q16 38 42.5 58.5t54.5 20.5q20 0 28 -2v-130q-8 2 -28 2q-24 0 -47 -17.5t-33 -52.5q-5 -18 -5 -49v-248h-132z" />
<glyph unicode="s" horiz-adv-x="324" d="M18 22l24 96q41 -26 88 -26q53 0 53 44q0 19 -12.5 33t-44.5 33q-99 56 -99 141q0 67 44.5 110.5t116.5 43.5q51 0 99 -22l-23 -96q-35 20 -68 20q-24 0 -36.5 -12t-12.5 -30q0 -17 11.5 -29t45.5 -32q99 -56 99 -148q0 -73 -47.5 -113.5t-125.5 -40.5q-74 0 -112 28z " />
<glyph unicode="t" horiz-adv-x="311" d="M69 576l131 41v-128h96v-93h-96v-223q0 -71 50 -71q18 0 34 3l1 -102q-32 -9 -80 -9q-62 0 -94 31q-42 40 -42 140v231h-58v93h58v87z" />
<glyph unicode="u" horiz-adv-x="452" d="M404 489v-340q0 -57 4 -149h-113l-7 52h-2q-42 -60 -113 -60q-68 0 -99.5 50t-31.5 151v296h132v-282q0 -105 49 -105q30 0 42 33q8 16 8 42v312h131z" />
<glyph unicode="v" horiz-adv-x="395" d="M5 489h139l37 -218q15 -95 21 -137h2q7 57 19 137l38 218h129l-131 -489h-121z" />
<glyph unicode="w" horiz-adv-x="616" d="M5 489h140l26 -211q12 -92 17 -148h3l27 146l43 213h101l42 -208q20 -108 25 -151h3q4 66 17 150l30 209h129l-126 -489h-111l-37 171q-17 74 -25 152h-2q-7 -65 -28 -153l-42 -170h-112z" />
<glyph unicode="x" horiz-adv-x="396" d="M7 489h142l30 -87q13 -37 24 -82h2q22 80 23 82l29 87h132l-111 -240l113 -249h-143l-33 92q-13 38 -24 75h-2q-3 -14 -11.5 -40.5t-10.5 -34.5l-30 -92h-131l109 243z" />
<glyph unicode="y" horiz-adv-x="391" d="M5 489h141l48 -254q4 -21 13 -82h2l12 80l41 256h128l-100 -377q-46 -175 -109 -250q-50 -59 -111 -77l-40 113q32 11 65 41q27 26 41 58q7 16 7 21q0 6 -4 18z" />
<glyph unicode="z" horiz-adv-x="351" d="M18 0v82l120 218l23 38q18 30 23 41v3h-151v107h294v-89l-117 -210l-16 -28l-18 -30l-13 -22v-3h168v-107h-313z" />
<glyph unicode="{" horiz-adv-x="258" d="M10 248v79q66 0 66 57q0 25 -6 77t-6 80q0 71 40 108t112 37h19v-81h-15q-54 -4 -54 -68q0 -24 4 -66t4 -59q0 -98 -76 -122v-2q76 -24 76 -124q0 -19 -4 -63q-4 -40 -4 -62q0 -65 56 -70h13v-81h-21q-67 0 -108.5 34.5t-41.5 109.5q0 27 6 81q6 52 6 79q0 23 -15 39.5 t-51 16.5z" />
<glyph unicode="|" horiz-adv-x="218" d="M61 750h97v-1000h-97v1000z" />
<glyph unicode="}" horiz-adv-x="258" d="M248 327v-79q-36 0 -51 -16.5t-15 -39.5q0 -27 6 -79q6 -54 6 -81q0 -75 -41.5 -109.5t-108.5 -34.5h-21v81h13q56 5 56 70q0 22 -4 62q-4 44 -4 63q0 100 76 124v2q-76 24 -76 122q0 17 4 59t4 66q0 64 -54 68h-15v81h18q72 0 112.5 -37t40.5 -108q0 -28 -6 -80t-6 -77 q0 -57 66 -57z" />
<glyph unicode="~" horiz-adv-x="596" d="M141 201h-84q-1 87 39 128t96 41q52 0 133 -50q41 -25 57 -33t31 -8q43 0 43 82h83v-18q0 -68 -28 -107q-32 -45 -94 -45q-33 0 -60 9.5t-71 36.5q-75 47 -99 47q-46 0 -46 -83z" />
<glyph unicode="&#xa1;" horiz-adv-x="236" d="M190 -191h-143l15 455h112zM118 493h1q32 0 53 -22.5t21 -58.5q0 -35 -20.5 -57.5t-53.5 -22.5q-32 0 -54 23t-22 57q0 36 22 58.5t53 22.5z" />
<glyph unicode="&#xa2;" d="M296 -7h-84v100q-69 16 -110 68q-47 62 -47 163q0 88 43.5 150.5t115.5 80.5v101h84v-94q44 -3 70 -17l-16 -100q-32 16 -75 16q-42 0 -67 -39.5t-25 -99.5q0 -61 27.5 -97.5t70.5 -36.5q44 0 79 15l10 -98q-27 -14 -76 -15v-97z" />
<glyph unicode="&#xa3;" d="M384 0h-348v82q42 17 65.5 59t23.5 86q0 38 -3 54h-79v87h65q-11 47 -11 97q0 82 50 137.5t135 55.5q49 0 83 -17l-20 -106q-26 13 -56 13q-33 0 -50.5 -22t-17.5 -58q0 -40 11 -100h104v-87h-92q1 -10 1 -20q0 -38 -10 -68q-18 -51 -50 -81v-2h199v-110z" />
<glyph unicode="&#xa4;" d="M214 536h1q59 0 98 -36l65 75l54 -56l-78 -76q22 -50 22 -115q0 -67 -23 -115l78 -81l-54 -55l-67 77q-43 -38 -100 -38t-98 36l-62 -75l-54 55l73 75q-24 48 -24 115q0 69 27 121l-78 75l56 58l64 -79q42 39 100 39zM211 445h-1q-54 0 -54 -121q0 -50 14.5 -83.5 t40.5 -33.5q53 0 53 119t-53 119z" />
<glyph unicode="&#xa5;" d="M272 0h-120v165h-130v67h130v59h-130v67h102l-118 292h129l53 -181q23 -73 29 -108h2q12 54 28 110l53 179h121l-121 -292h103v-67h-131v-59h131v-67h-131v-165z" />
<glyph unicode="&#xa6;" horiz-adv-x="218" d="M61 174h97v-350h-97v350zM61 674h97v-350h-97v350z" />
<glyph unicode="&#xa7;" horiz-adv-x="431" d="M127 350v-1q0 -40 74 -72q47 -20 80 -43q10 7 17.5 23t7.5 31q0 45 -59 71q-63 27 -88 44q-32 -20 -32 -53zM356 657l-20 -82q-41 22 -94 22q-28 0 -46.5 -12.5t-18.5 -33.5q0 -26 15.5 -40t59.5 -30q72 -29 109 -64.5t37 -100.5q0 -70 -57 -127q32 -30 32 -83 q0 -71 -50 -113.5t-127 -42.5q-90 0 -137 32l23 85q52 -32 114 -32q32 0 51 13.5t19 39.5q0 23 -20.5 40.5t-72.5 39.5q-68 30 -104 67t-36 94q0 67 69 120q-32 35 -33 83q0 68 50.5 109t128.5 41q64 0 108 -25z" />
<glyph unicode="&#xa8;" horiz-adv-x="300" d="M61 560h-1q-24 0 -41.5 18.5t-17.5 45.5t17.5 45.5t42.5 18.5q26 0 43 -18t17 -46t-17 -46t-43 -18zM239 560h-1q-25 0 -42.5 18.5t-17.5 45.5t18 45.5t43 18.5t42 -18t17 -46t-16.5 -46t-42.5 -18z" />
<glyph unicode="&#xa9;" horiz-adv-x="677" d="M340 648h1q127 0 216 -90t89 -218q0 -129 -89 -219.5t-217 -90.5q-129 0 -219 90.5t-90 219.5q0 128 90 218t219 90zM339 592h-1q-101 0 -171.5 -74t-70.5 -179t70.5 -179t172.5 -74h3q99 0 168 74q71 74 71 179t-70.5 179t-171.5 74zM474 494l-15 -54q-39 21 -93 21 q-57 0 -91.5 -34t-34.5 -91q0 -56 33.5 -90t88.5 -34q53 0 95 21l15 -52q-52 -28 -121 -28q-83 0 -132.5 51.5t-49.5 129.5q0 85 56 135.5t144 50.5q32 0 63 -8.5t42 -17.5z" />
<glyph unicode="&#xaa;" horiz-adv-x="302" d="M268 263h-71l-5 33h-2q-27 -38 -74 -38q-37 0 -61 26.5t-24 69.5q0 59 43.5 88t107.5 30v8q0 16 -12.5 27.5t-38.5 11.5q-35 0 -64 -18l-14 61q42 26 93 26q118 0 118 -137v-113q0 -44 4 -75zM184 362v53q-75 0 -75 -52q0 -17 10 -27.5t25 -10.5q23 0 34 20q6 10 6 17z " />
<glyph unicode="&#xab;" horiz-adv-x="383" d="M216 437l-108 -185l108 -185h-95l-105 185l105 185h95zM376 437l-108 -185l108 -185h-94l-106 185l105 185h95z" />
<glyph unicode="&#xac;" horiz-adv-x="596" d="M40 421h516v-315h-83v233h-433v82z" />
<glyph unicode="&#xad;" horiz-adv-x="291" d="M30 323h199v-94h-199v94z" />
<glyph unicode="&#xae;" horiz-adv-x="374" d="M167 503v-54h-41v147q27 6 60 6q36 0 55 -12q15 -10 15 -33q0 -11 -9 -20t-24 -13v-2q23 -7 30 -38q5 -24 9 -35h-45q-5 6 -11 31q-3 23 -24 23h-15zM169 568v-35h13q27 0 27 18q0 19 -25 19q-9 0 -15 -2zM187 685h1q66 0 112.5 -47t46.5 -113q0 -67 -46.5 -114 t-113.5 -47t-113.5 47t-46.5 114q0 66 46.5 113t113.5 47zM187 646h-1q-48 0 -80 -35.5t-32 -86.5t32.5 -85.5t80.5 -34.5h3q46 0 78 34q32 36 32 87t-32.5 86t-80.5 35z" />
<glyph unicode="&#xaf;" horiz-adv-x="300" d="M44 656h213v-74h-213v74z" />
<glyph unicode="&#xb0;" horiz-adv-x="287" d="M147 683h1q54 0 86.5 -34.5t32.5 -84.5q0 -56 -38 -89.5t-84 -33.5q-52 0 -85.5 33.5t-33.5 83.5q0 52 37 88.5t84 36.5zM147 631h-1q-24 0 -42.5 -21.5t-18.5 -50.5q0 -28 18.5 -47.5t43.5 -19.5q26 0 44 19t18 49q0 29 -16 50t-46 21z" />
<glyph unicode="&#xb1;" horiz-adv-x="596" d="M256 567h84v-172h216v-83h-216v-175h-84v175h-216v83h216v172zM40 82h516v-82h-516v82z" />
<glyph unicode="&#xb2;" horiz-adv-x="274" d="M8 417v53l46 57q66 81 80 108q12 24 12 45q0 53 -50 53q-33 0 -64 -23l-19 69q37 33 108 33q66 0 96 -33.5t30 -79.5q0 -34 -19 -70.5t-34 -53.5t-52 -56l-17 -19v-3h126v-80h-243z" />
<glyph unicode="&#xb3;" horiz-adv-x="260" d="M35 723l-14 66q42 23 94 23q58 0 87.5 -28t29.5 -67q0 -63 -65 -91v-2q32 -6 54 -31.5t22 -59.5q0 -53 -41.5 -87t-110.5 -34q-52 0 -85 19l14 69q32 -17 67 -17q25 0 41.5 15t16.5 38q0 27 -20.5 42t-53.5 15h-12v62h8q28 0 50.5 11t22.5 34q0 19 -12.5 30t-33.5 11 q-28 0 -59 -18z" />
<glyph unicode="&#xb4;" horiz-adv-x="300" d="M173 689h114l-101 -140h-82z" />
<glyph unicode="&#xb5;" horiz-adv-x="455" d="M303 49h-3q-10 -21 -30.5 -35.5t-44.5 -14.5q-35 0 -54 23v-39q0 -118 11 -175h-121q-16 44 -16 192v489h132v-309q0 -83 46 -83q31 0 46 36q7 16 7 44v312h131v-347q0 -31 7 -42t27 -11l-12 -91q-13 -6 -40 -6q-61 0 -86 57z" />
<glyph unicode="&#xb6;" horiz-adv-x="431" d="M242 -50h-72v314h-7q-13 0 -33 9t-44.5 28t-43 57t-21.5 87v14q0 86 57 148q61 67 186 67q58 0 108 -8v-716h-72v651h-58v-651z" />
<glyph unicode="&#xb7;" horiz-adv-x="233" d="M117 183h-1q-32 0 -53.5 24t-21.5 62q0 37 22.5 62t53.5 25q33 0 54.5 -23.5t21.5 -63.5q0 -39 -21 -62.5t-55 -23.5z" />
<glyph unicode="&#xb8;" horiz-adv-x="300" d="M131 5h69l-24 -49q28 -5 47.5 -24.5t19.5 -48.5q0 -45 -31.5 -66t-79.5 -21q-41 0 -75 18l19 56q28 -14 53 -14q31 0 31 25q0 31 -68 37z" />
<glyph unicode="&#xb9;" horiz-adv-x="239" d="M192 417h-94v307h-2l-70 -33l-18 69l100 47h84v-390z" />
<glyph unicode="&#xba;" horiz-adv-x="311" d="M155 588h1q58 0 89.5 -43.5t31.5 -119.5q0 -91 -37 -129t-86 -38q-58 0 -91 43.5t-33 120.5q0 80 36 123t89 43zM154 519h-1q-22 0 -31 -30.5t-9 -65.5q0 -96 41 -96q39 0 39 96t-39 96z" />
<glyph unicode="&#xbb;" horiz-adv-x="383" d="M275 252l-108 185h94l106 -185l-105 -185h-95zM114 252l-108 185h94l106 -185l-104 -185h-96z" />
<glyph unicode="&#xbc;" horiz-adv-x="667" d="M201 263h-95v307h-2l-70 -33l-17 69l100 47h84v-390zM185 -8h-68l349 666h68zM591 0h-84v89h-148v60l140 242h92v-233h42v-69h-42v-89zM507 158v71q0 41 3 66h-2q-5 -9 -12.5 -25.5t-12.5 -26.5l-47 -83v-2h71z" />
<glyph unicode="&#xbd;" horiz-adv-x="667" d="M190 263h-94v307h-2l-71 -33l-17 69l100 47h84v-390zM159 -8h-69l349 666h68zM385 0v53l47 57l16 20q12 14 16 20l14 18l14 17l10.5 16t9.5 16.5t6 15t4.5 16t1.5 14.5q0 53 -50 53q-33 0 -64 -23l-20 69q38 33 109 33q66 0 96 -33.5t30 -79.5q0 -34 -18 -69.5 t-35.5 -55.5t-51.5 -55l-18 -19v-3h127v-80h-244z" />
<glyph unicode="&#xbe;" horiz-adv-x="667" d="M56 569l-15 66q44 23 95 23q58 0 87.5 -28t29.5 -67q0 -63 -65 -91v-2q32 -6 54 -31.5t22 -59.5q0 -53 -41.5 -87t-110.5 -34q-54 0 -85 19l14 69q32 -17 66 -17q25 0 42 15t17 38q0 27 -20.5 42t-53.5 15h-12v62h7q29 0 51 11t22 34q0 19 -12 30t-33 11q-30 0 -59 -18z M202 -8h-69l349 666h68zM597 0h-85v89h-147v60l140 242h92v-233h42v-69h-42v-89zM512 158v71q0 32 4 66h-2q-5 -9 -12.5 -25.5t-12.5 -26.5l-47 -83v-2h70z" />
<glyph unicode="&#xbf;" horiz-adv-x="334" d="M192 493h1q32 0 52.5 -22.5t20.5 -59.5q0 -35 -20 -57.5t-53 -22.5t-54.5 22.5t-21.5 57.5q0 37 21.5 59.5t53.5 22.5zM135 275h111l2 -18q1 -9 1 -19q0 -66 -54 -151q-43 -66 -43 -112q0 -28 18 -45t49 -17q38 0 64 18l21 -101q-45 -30 -116 -30q-47 0 -81.5 14.5 t-52.5 38t-26.5 49t-8.5 52.5q0 32 12.5 66.5t25 56t35.5 54.5q44 65 43 123v21z" />
<glyph unicode="&#xc0;" horiz-adv-x="458" d="M286 154h-121l-30 -154h-127l146 674h157l131 -674h-127zM178 256h96l-22 141q-7 43 -22 153h-3q-24 -152 -24 -154zM83 823h133l82 -113h-93z" />
<glyph unicode="&#xc1;" horiz-adv-x="458" d="M286 154h-121l-30 -154h-127l146 674h157l131 -674h-127zM178 256h96l-22 141q-7 43 -22 153h-3q-24 -152 -24 -154zM255 823h133l-122 -113h-93z" />
<glyph unicode="&#xc2;" horiz-adv-x="458" d="M286 154h-121l-30 -154h-127l146 674h157l131 -674h-127zM178 256h96l-22 141q-7 43 -22 153h-3q-24 -152 -24 -154zM180 820h103l84 -110h-96l-39 51h-2l-38 -51h-93z" />
<glyph unicode="&#xc3;" horiz-adv-x="458" d="M286 154h-121l-30 -154h-127l146 674h157l131 -674h-127zM178 256h96l-22 141q-7 43 -22 153h-3q-24 -152 -24 -154zM177 718h-59v6q0 51 17 80q18 30 49 30q23 0 53 -17q28 -18 37 -18q11 0 16.5 8t7.5 30h58v-12q0 -103 -69 -103q-26 0 -54 16q-22 15 -34 15 q-18 0 -22 -35z" />
<glyph unicode="&#xc4;" horiz-adv-x="458" d="M286 154h-121l-30 -154h-127l146 674h157l131 -674h-127zM178 256h96l-22 141q-7 43 -22 153h-3q-24 -152 -24 -154zM144 712h-1q-24 0 -41 18.5t-17 45.5t17.5 45.5t41.5 18.5t41.5 -18.5t17.5 -45.5t-17.5 -45.5t-41.5 -18.5zM328 712h-1q-24 0 -41 18.5t-17 45.5 t17.5 45.5t41.5 18.5q25 0 42 -18.5t17 -45.5t-17 -45.5t-42 -18.5z" />
<glyph unicode="&#xc5;" horiz-adv-x="458" d="M286 154h-121l-30 -154h-127l146 674h157l131 -674h-127zM178 256h96l-22 141q-7 43 -22 153h-3q-24 -152 -24 -154zM231 885h1q52 0 78 -26.5t26 -65.5t-27 -66t-78 -27q-53 0 -79.5 26.5t-26.5 63.5q0 39 27.5 67t78.5 28zM230 837h-1q-19 0 -28 -14t-9 -32 q0 -17 9.5 -30t28.5 -13q38 0 38 45q0 18 -9.5 31t-28.5 13z" />
<glyph unicode="&#xc6;" horiz-adv-x="595" d="M122 0h-129l203 674h369l-1 -114h-177l9 -166h163v-109h-152l10 -171h163v-114h-278l-12 184h-123zM191 286h89l-8 167q-2 43 -8 130h-3l-21 -89q-13 -58 -16 -70z" />
<glyph unicode="&#xc7;" horiz-adv-x="402" d="M368 120l13 -110q-34 -16 -90 -16l-20 -38q29 -5 48.5 -24.5t19.5 -48.5q0 -45 -31.5 -65.5t-79.5 -20.5q-44 0 -75 17l19 57q27 -15 52 -15q32 0 32 26q0 31 -68 37l37 80q-100 21 -150 106.5t-50 221.5q0 91 23.5 161.5t63.5 111t87 60.5t98 20q65 0 91 -18l-22 -110 q-28 13 -61 13q-61 0 -101 -57t-40 -174q0 -115 38.5 -169.5t102.5 -54.5q31 0 63 10z" />
<glyph unicode="&#xc8;" horiz-adv-x="394" d="M343 405v-109h-154v-182h174v-114h-305v674h293v-114h-162v-155h154zM62 823h133l82 -113h-93z" />
<glyph unicode="&#xc9;" horiz-adv-x="394" d="M343 405v-109h-154v-182h174v-114h-305v674h293v-114h-162v-155h154zM230 823h133l-122 -113h-93z" />
<glyph unicode="&#xca;" horiz-adv-x="394" d="M343 405v-109h-154v-182h174v-114h-305v674h293v-114h-162v-155h154zM156 820h103l84 -110h-96l-39 51h-2l-38 -51h-93z" />
<glyph unicode="&#xcb;" horiz-adv-x="394" d="M343 405v-109h-154v-182h174v-114h-305v674h293v-114h-162v-155h154zM115 714h-1q-24 0 -41 18.5t-17 45.5t17.5 45.5t41.5 18.5t41.5 -18.5t17.5 -45.5t-17.5 -45.5t-41.5 -18.5zM299 714h-1q-24 0 -41 18.5t-17 45.5t17.5 45.5t41.5 18.5q25 0 42 -18.5t17 -45.5 t-17 -45.5t-42 -18.5z" />
<glyph unicode="&#xcc;" horiz-adv-x="248" d="M58 674h131v-674h-131v674zM-30 823h133l82 -113h-93z" />
<glyph unicode="&#xcd;" horiz-adv-x="248" d="M58 674h131v-674h-131v674zM142 823h133l-122 -113h-93z" />
<glyph unicode="&#xce;" horiz-adv-x="248" d="M58 674h131v-674h-131v674zM71 820h103l84 -110h-96l-39 51h-2l-38 -51h-93z" />
<glyph unicode="&#xcf;" horiz-adv-x="248" d="M58 674h131v-674h-131v674zM31 714h-1q-24 0 -41 18.5t-17 45.5t17.5 45.5t41.5 18.5t41.5 -18.5t17.5 -45.5t-17.5 -45.5t-41.5 -18.5zM215 714h-1q-24 0 -41 18.5t-17 45.5t17.5 45.5t41.5 18.5q25 0 42 -18.5t17 -45.5t-17 -45.5t-42 -18.5z" />
<glyph unicode="&#xd0;" horiz-adv-x="493" d="M0 303v91h61v270q52 13 133 13q122 0 187 -60q87 -78 87 -272q0 -201 -93 -286q-70 -65 -206 -65q-58 0 -108 8v301h-61zM265 394v-91h-74v-200q7 -2 24 -2q52 0 85 59t33 190q0 222 -116 222q-14 0 -26 -3v-175h74z" />
<glyph unicode="&#xd1;" horiz-adv-x="516" d="M173 0h-115v674h120l104 -264q53 -137 72 -197h2q-13 231 -13 312v149h115v-674h-120l-103 256q-50 129 -68 203h-2q8 -181 8 -308v-151zM201 718h-59v6q0 51 17 80q18 30 49 30q23 0 53 -17q28 -18 37 -18q11 0 16.5 8t7.5 30h58v-12q0 -103 -69 -103q-26 0 -54 16 q-22 15 -34 15q-18 0 -22 -35z" />
<glyph unicode="&#xd2;" horiz-adv-x="481" d="M247 682q47 0 84 -20t60 -52.5t38 -77t21 -89.5t6 -94q0 -183 -58.5 -270t-159.5 -87q-73 0 -122.5 49.5t-70 125t-20.5 172.5q0 95 24 171t75 124t123 48zM242 568q-39 0 -60 -61t-21 -170q0 -231 82 -231q76 0 76 237q0 225 -77 225zM90 823h133l82 -113h-93z" />
<glyph unicode="&#xd3;" horiz-adv-x="481" d="M247 682q47 0 84 -20t60 -52.5t38 -77t21 -89.5t6 -94q0 -183 -58.5 -270t-159.5 -87q-73 0 -122.5 49.5t-70 125t-20.5 172.5q0 95 24 171t75 124t123 48zM242 568q-39 0 -60 -61t-21 -170q0 -231 82 -231q76 0 76 237q0 225 -77 225zM267 823h133l-122 -113h-93z" />
<glyph unicode="&#xd4;" horiz-adv-x="481" d="M247 682q47 0 84 -20t60 -52.5t38 -77t21 -89.5t6 -94q0 -183 -58.5 -270t-159.5 -87q-73 0 -122.5 49.5t-70 125t-20.5 172.5q0 95 24 171t75 124t123 48zM242 568q-39 0 -60 -61t-21 -170q0 -231 82 -231q76 0 76 237q0 225 -77 225zM188 820h103l84 -110h-96l-39 51 h-2l-38 -51h-93z" />
<glyph unicode="&#xd5;" horiz-adv-x="481" d="M247 682q47 0 84 -20t60 -52.5t38 -77t21 -89.5t6 -94q0 -183 -58.5 -270t-159.5 -87q-73 0 -122.5 49.5t-70 125t-20.5 172.5q0 95 24 171t75 124t123 48zM242 568q-39 0 -60 -61t-21 -170q0 -231 82 -231q76 0 76 237q0 225 -77 225zM180 713h-59v6q0 51 17 79 q18 31 49 31q23 0 53 -17q28 -18 37 -18q11 0 16.5 8t7.5 30h58v-12q0 -103 -69 -103q-26 0 -54 16q-22 15 -34 15q-18 0 -22 -35z" />
<glyph unicode="&#xd6;" horiz-adv-x="481" d="M247 682q47 0 84 -20t60 -52.5t38 -77t21 -89.5t6 -94q0 -183 -58.5 -270t-159.5 -87q-73 0 -122.5 49.5t-70 125t-20.5 172.5q0 95 24 171t75 124t123 48zM242 568q-39 0 -60 -61t-21 -170q0 -231 82 -231q76 0 76 237q0 225 -77 225zM147 714h-1q-24 0 -41 18.5 t-17 45.5t17.5 45.5t41.5 18.5t41.5 -18.5t17.5 -45.5t-17.5 -45.5t-41.5 -18.5zM331 714h-1q-24 0 -41 18.5t-17 45.5t17.5 45.5t41.5 18.5q25 0 42 -18.5t17 -45.5t-17 -45.5t-42 -18.5z" />
<glyph unicode="&#xd7;" horiz-adv-x="596" d="M40 466l56 60l202 -205l202 205l56 -60l-200 -203l200 -202l-59 -61l-199 204l-200 -204l-58 61l199 202z" />
<glyph unicode="&#xd8;" horiz-adv-x="481" d="M107 -51l-66 36l43 96q-59 89 -59 258q0 144 57 243.5t161 99.5q54 0 96 -27l31 70l69 -29l-42 -95q59 -87 59 -252q0 -183 -57.5 -270t-157.5 -87q-58 0 -101 31zM160 235l129 305q-16 28 -47 28q-41 0 -65 -59t-24 -169q0 -69 5 -105h2zM321 443l-133 -304 q16 -33 54 -33q41 0 63.5 60.5t22.5 176.5q0 57 -5 100h-2z" />
<glyph unicode="&#xd9;" horiz-adv-x="500" d="M54 674h131v-438q0 -129 64 -129q31 0 48 28.5t17 100.5v438h131v-415q0 -131 -49 -199t-146 -68q-103 0 -149.5 67.5t-46.5 198.5v416zM102 823h133l82 -113h-93z" />
<glyph unicode="&#xda;" horiz-adv-x="500" d="M54 674h131v-438q0 -129 64 -129q31 0 48 28.5t17 100.5v438h131v-415q0 -131 -49 -199t-146 -68q-103 0 -149.5 67.5t-46.5 198.5v416zM263 823h133l-122 -113h-93z" />
<glyph unicode="&#xdb;" horiz-adv-x="500" d="M54 674h131v-438q0 -129 64 -129q31 0 48 28.5t17 100.5v438h131v-415q0 -131 -49 -199t-146 -68q-103 0 -149.5 67.5t-46.5 198.5v416zM201 820h103l84 -110h-96l-39 51h-2l-38 -51h-93z" />
<glyph unicode="&#xdc;" horiz-adv-x="500" d="M54 674h131v-438q0 -129 64 -129q31 0 48 28.5t17 100.5v438h131v-415q0 -131 -49 -199t-146 -68q-103 0 -149.5 67.5t-46.5 198.5v416zM157 714h-1q-24 0 -41 18.5t-17 45.5t17.5 45.5t41.5 18.5t41.5 -18.5t17.5 -45.5t-17.5 -45.5t-41.5 -18.5zM341 714h-1 q-24 0 -41 18.5t-17 45.5t17.5 45.5t41.5 18.5q25 0 42 -18.5t17 -45.5t-17 -45.5t-42 -18.5z" />
<glyph unicode="&#xdd;" horiz-adv-x="402" d="M264 0h-131v258l-148 416h140l46 -161q23 -81 35 -143h2q10 63 31 146l40 158h136l-151 -411v-263zM229 823h133l-122 -113h-93z" />
<glyph unicode="&#xde;" horiz-adv-x="453" d="M58 0v674h128v-116q12 2 42 2q94 0 146 -46q59 -52 59 -151q0 -60 -19.5 -105.5t-51.5 -70t-67 -36.5t-72 -12q-23 0 -37 3v-142h-128zM186 451v-200q12 -4 29 -4q42 0 66 29.5t24 76.5q0 101 -85 101q-19 0 -34 -3z" />
<glyph unicode="&#xdf;" horiz-adv-x="493" d="M177 0h-131v432q0 146 66 210q60 58 151 58q86 0 133 -48.5t47 -121.5q0 -49 -23 -77q-50 -27 -50 -68q0 -30 37 -73q35 -40 49.5 -75t14.5 -80q0 -74 -49 -119.5t-123 -45.5q-49 0 -86 13l15 100q25 -12 62 -12q27 0 42 16t15 37q0 36 -43 86q-31 37 -45 65.5t-14 65.5 q0 36 19 67.5t48 47.5q7 15 7 47q0 31 -18 50.5t-45 19.5q-79 0 -79 -152v-443z" />
<glyph unicode="&#xe0;" horiz-adv-x="422" d="M375 294v-182q0 -68 8 -112h-118l-7 48h-2q-40 -56 -108 -56q-56 0 -92.5 42t-36.5 107q0 61 33.5 103.5t82.5 60t108 18.5v11q0 30 -18 48t-51 18q-55 0 -100 -28l-24 88q62 37 152 37q43 0 75 -12t50.5 -30.5t29.5 -46.5t14.5 -54.5t3.5 -59.5zM247 153v85 q-104 -2 -104 -83q0 -33 14.5 -50t32.5 -17q17 0 32.5 11t21.5 31q3 10 3 23zM78 689h114l69 -140h-83z" />
<glyph unicode="&#xe1;" horiz-adv-x="422" d="M230 689h114l-101 -140h-82zM375 294v-182q0 -68 8 -112h-118l-7 48h-2q-40 -56 -108 -56q-56 0 -92.5 42t-36.5 107q0 61 33.5 103.5t82.5 60t108 18.5v11q0 30 -18 48t-51 18q-55 0 -100 -28l-24 88q62 37 152 37q43 0 75 -12t50.5 -30.5t29.5 -46.5t14.5 -54.5 t3.5 -59.5zM247 153v85q-104 -2 -104 -83q0 -33 14.5 -50t32.5 -17q17 0 32.5 11t21.5 31q3 10 3 23z" />
<glyph unicode="&#xe2;" horiz-adv-x="422" d="M165 689h91l86 -140h-90l-40 80h-2l-40 -80h-91zM375 294v-182q0 -68 8 -112h-118l-7 48h-2q-40 -56 -108 -56q-56 0 -92.5 42t-36.5 107q0 61 33.5 103.5t82.5 60t108 18.5v11q0 30 -18 48t-51 18q-55 0 -100 -28l-24 88q62 37 152 37q43 0 75 -12t50.5 -30.5 t29.5 -46.5t14.5 -54.5t3.5 -59.5zM247 153v85q-104 -2 -104 -83q0 -33 14.5 -50t32.5 -17q17 0 32.5 11t21.5 31q3 10 3 23z" />
<glyph unicode="&#xe3;" horiz-adv-x="422" d="M149 557h-60q0 52 18 85t53 33q21 0 57 -18q26 -16 37 -16t16 7.5t6 29.5h58q0 -114 -70 -114q-21 0 -53 16q-6 3 -14 7.5t-13.5 7t-11.5 2.5q-23 0 -23 -40zM375 294v-182q0 -68 8 -112h-118l-7 48h-2q-40 -56 -108 -56q-56 0 -92.5 42t-36.5 107q0 61 33.5 103.5 t82.5 60t108 18.5v11q0 30 -18 48t-51 18q-55 0 -100 -28l-24 88q62 37 152 37q43 0 75 -12t50.5 -30.5t29.5 -46.5t14.5 -54.5t3.5 -59.5zM247 153v85q-104 -2 -104 -83q0 -33 14.5 -50t32.5 -17q17 0 32.5 11t21.5 31q3 10 3 23z" />
<glyph unicode="&#xe4;" horiz-adv-x="422" d="M122 560h-1q-24 0 -41.5 18.5t-17.5 45.5t17.5 45.5t42.5 18.5q26 0 43 -18t17 -46t-17 -46t-43 -18zM300 560h-1q-25 0 -42.5 18.5t-17.5 45.5t18 45.5t43 18.5t42 -18t17 -46t-16.5 -46t-42.5 -18zM375 294v-182q0 -68 8 -112h-118l-7 48h-2q-40 -56 -108 -56 q-56 0 -92.5 42t-36.5 107q0 61 33.5 103.5t82.5 60t108 18.5v11q0 30 -18 48t-51 18q-55 0 -100 -28l-24 88q62 37 152 37q43 0 75 -12t50.5 -30.5t29.5 -46.5t14.5 -54.5t3.5 -59.5zM247 153v85q-104 -2 -104 -83q0 -33 14.5 -50t32.5 -17q17 0 32.5 11t21.5 31q3 10 3 23 z" />
<glyph unicode="&#xe5;" horiz-adv-x="422" d="M375 294v-182q0 -68 8 -112h-118l-7 48h-2q-40 -56 -108 -56q-56 0 -92.5 42t-36.5 107q0 61 33.5 103.5t82.5 60t108 18.5v11q0 30 -18 48t-51 18q-55 0 -100 -28l-24 88q62 37 152 37q43 0 75 -12t50.5 -30.5t29.5 -46.5t14.5 -54.5t3.5 -59.5zM247 153v85 q-104 -2 -104 -83q0 -33 14.5 -50t32.5 -17q17 0 32.5 11t21.5 31q3 10 3 23zM213 538q-50 0 -77 25t-27 64q0 41 27 67.5t78 26.5q49 0 75 -25t26 -66q0 -40 -27.5 -66t-74.5 -26zM211 582q42 0 42 48q0 47 -43 47q-20 0 -29 -15t-9 -34q0 -16 9.5 -31t29.5 -15z" />
<glyph unicode="&#xe6;" horiz-adv-x="633" d="M601 214h-232q0 -65 29.5 -94.5t77.5 -29.5q50 0 90 20l18 -91q-54 -27 -131 -27q-51 0 -92.5 22t-61.5 63h-3q-50 -85 -142 -85q-59 0 -97 43.5t-38 110.5q0 84 65 126.5t156 43.5v15q0 30 -20 49.5t-56 19.5q-50 0 -90 -27l-24 87q60 37 139 37q95 0 126 -77h2 q44 77 133 77q71 0 113 -61.5t42 -169.5q0 -18 -4 -52zM242 160v74q-42 0 -74 -18.5t-32 -64.5q0 -30 15 -45.5t35 -15.5q17 0 31.5 11.5t20.5 31.5q4 11 4 27zM369 299h116v6q0 41 -13 70q-13 31 -40 31q-29 0 -45.5 -34t-17.5 -73z" />
<glyph unicode="&#xe7;" horiz-adv-x="323" d="M307 111l11 -102q-27 -14 -79 -15l-20 -38q29 -5 48.5 -24.5t19.5 -48.5q0 -45 -32 -66t-79 -21q-43 0 -75 18l19 56q28 -14 52 -14q32 0 32 25q0 31 -68 37l37 84q-68 18 -106 79t-38 159q0 114 61.5 185t162.5 71q44 0 72 -13l-17 -103q-25 9 -49 9q-46 0 -73 -40 t-27 -105q0 -67 26 -105t72 -38q30 0 50 10z" />
<glyph unicode="&#xe8;" horiz-adv-x="419" d="M387 198h-232q3 -104 104 -104q47 0 93 16l18 -94q-58 -22 -135 -22q-99 0 -152.5 63t-53.5 178q0 120 55.5 191t140.5 71q79 0 122.5 -60t43.5 -171q0 -49 -4 -68zM156 290h116q0 112 -55 112q-29 0 -44.5 -34.5t-16.5 -77.5zM93 689h114l69 -140h-83z" />
<glyph unicode="&#xe9;" horiz-adv-x="419" d="M248 689h114l-101 -140h-82zM387 198h-232q3 -104 104 -104q47 0 93 16l18 -94q-58 -22 -135 -22q-99 0 -152.5 63t-53.5 178q0 120 55.5 191t140.5 71q79 0 122.5 -60t43.5 -171q0 -49 -4 -68zM156 290h116q0 112 -55 112q-29 0 -44.5 -34.5t-16.5 -77.5z" />
<glyph unicode="&#xea;" horiz-adv-x="419" d="M178 689h91l86 -140h-90l-40 80h-2l-40 -80h-91zM387 198h-232q3 -104 104 -104q47 0 93 16l18 -94q-58 -22 -135 -22q-99 0 -152.5 63t-53.5 178q0 120 55.5 191t140.5 71q79 0 122.5 -60t43.5 -171q0 -49 -4 -68zM156 290h116q0 112 -55 112q-29 0 -44.5 -34.5 t-16.5 -77.5z" />
<glyph unicode="&#xeb;" horiz-adv-x="419" d="M139 560h-1q-24 0 -41.5 18.5t-17.5 45.5t17.5 45.5t42.5 18.5q26 0 43 -18t17 -46t-17 -46t-43 -18zM317 560h-1q-25 0 -42.5 18.5t-17.5 45.5t18 45.5t43 18.5t42 -18t17 -46t-16.5 -46t-42.5 -18zM387 198h-232q3 -104 104 -104q47 0 93 16l18 -94q-58 -22 -135 -22 q-99 0 -152.5 63t-53.5 178q0 120 55.5 191t140.5 71q79 0 122.5 -60t43.5 -171q0 -49 -4 -68zM156 290h116q0 112 -55 112q-29 0 -44.5 -34.5t-16.5 -77.5z" />
<glyph unicode="&#xec;" horiz-adv-x="223" d="M-24 689h114l69 -140h-83zM177 0h-131v489h131v-489z" />
<glyph unicode="&#xed;" horiz-adv-x="223" d="M135 689h114l-101 -140h-82zM177 0h-131v489h131v-489z" />
<glyph unicode="&#xee;" horiz-adv-x="223" d="M67 689h91l86 -140h-90l-40 80h-2l-40 -80h-91zM177 0h-131v489h131v-489z" />
<glyph unicode="&#xef;" horiz-adv-x="223" d="M23 560h-1q-24 0 -41.5 18.5t-17.5 45.5t17.5 45.5t42.5 18.5q26 0 43 -18t17 -46t-17 -46t-43 -18zM201 560h-1q-25 0 -42.5 18.5t-17.5 45.5t18 45.5t43 18.5t42 -18t17 -46t-16.5 -46t-42.5 -18zM177 0h-131v489h131v-489z" />
<glyph unicode="&#xf0;" horiz-adv-x="431" d="M217 92h1q54 0 54 149q0 85 -9 115q-12 44 -45 44t-46 -47.5t-13 -106.5q0 -154 58 -154zM84 504l-28 43l82 43q-20 20 -62 51l75 67q42 -28 86 -67l92 49l28 -46l-81 -41q43 -44 85 -125q42 -84 42 -218q0 -77 -18 -132.5t-48 -83.5t-60.5 -40t-63.5 -12 q-87 0 -135.5 66t-48.5 185q0 108 44.5 169t106.5 70q10 2 19 2q21 0 37 -9l2 5q-24 46 -56 75z" />
<glyph unicode="&#xf1;" horiz-adv-x="458" d="M171 557h-60q0 52 18 85t53 33q21 0 57 -18q26 -16 37 -16t16 7.5t6 29.5h58q0 -114 -70 -114q-21 0 -53 16q-6 3 -14 7.5t-13.5 7t-11.5 2.5q-23 0 -23 -40zM46 0v342q0 31 -2 83t-2 64h113l6 -56h2q43 64 119 64q130 0 130 -183v-314h-131v306q0 81 -48 81 q-35 0 -49 -44q-7 -17 -7 -45v-298h-131z" />
<glyph unicode="&#xf2;" horiz-adv-x="431" d="M218 497q86 0 135.5 -67.5t49.5 -183.5q0 -72 -18.5 -125t-48 -79.5t-59.5 -38t-61 -11.5q-88 0 -137.5 66t-49.5 185q0 124 55 189t134 65zM217 398q-58 0 -58 -152q0 -154 60 -154q53 0 53 154q0 152 -55 152zM84 689h114l69 -140h-83z" />
<glyph unicode="&#xf3;" horiz-adv-x="431" d="M243 689h114l-101 -140h-82zM218 497q86 0 135.5 -67.5t49.5 -183.5q0 -72 -18.5 -125t-48 -79.5t-59.5 -38t-61 -11.5q-88 0 -137.5 66t-49.5 185q0 124 55 189t134 65zM217 398q-58 0 -58 -152q0 -154 60 -154q53 0 53 154q0 152 -55 152z" />
<glyph unicode="&#xf4;" horiz-adv-x="431" d="M171 689h91l86 -140h-90l-40 80h-2l-40 -80h-91zM218 497q86 0 135.5 -67.5t49.5 -183.5q0 -72 -18.5 -125t-48 -79.5t-59.5 -38t-61 -11.5q-88 0 -137.5 66t-49.5 185q0 124 55 189t134 65zM217 398q-58 0 -58 -152q0 -154 60 -154q53 0 53 154q0 152 -55 152z" />
<glyph unicode="&#xf5;" horiz-adv-x="431" d="M154 557h-60q0 52 18 85t53 33q21 0 57 -18q26 -16 37 -16t16 7.5t6 29.5h58q0 -114 -70 -114q-21 0 -53 16q-6 3 -14 7.5t-13.5 7t-11.5 2.5q-23 0 -23 -40zM218 497q86 0 135.5 -67.5t49.5 -183.5q0 -72 -18.5 -125t-48 -79.5t-59.5 -38t-61 -11.5q-88 0 -137.5 66 t-49.5 185q0 124 55 189t134 65zM217 398q-58 0 -58 -152q0 -154 60 -154q53 0 53 154q0 152 -55 152z" />
<glyph unicode="&#xf6;" horiz-adv-x="431" d="M127 560h-1q-24 0 -41.5 18.5t-17.5 45.5t17.5 45.5t42.5 18.5q26 0 43 -18t17 -46t-17 -46t-43 -18zM305 560h-1q-25 0 -42.5 18.5t-17.5 45.5t18 45.5t43 18.5t42 -18t17 -46t-16.5 -46t-42.5 -18zM218 497q86 0 135.5 -67.5t49.5 -183.5q0 -72 -18.5 -125t-48 -79.5 t-59.5 -38t-61 -11.5q-88 0 -137.5 66t-49.5 185q0 124 55 189t134 65zM217 398q-58 0 -58 -152q0 -154 60 -154q53 0 53 154q0 152 -55 152z" />
<glyph unicode="&#xf7;" horiz-adv-x="596" d="M298 377h-1q-25 0 -41 17.5t-16 43.5q0 27 16.5 44.5t42.5 17.5t42 -17.5t16 -44.5t-15.5 -44t-43.5 -17zM556 226h-516v82h516v-82zM298 34h-1q-25 0 -41 17.5t-16 43.5q0 27 16.5 44.5t42.5 17.5t42 -17.5t16 -44.5t-15.5 -44t-43.5 -17z" />
<glyph unicode="&#xf8;" horiz-adv-x="431" d="M217 497h1q48 0 87 -24l33 57l58 -31l-41 -73q48 -67 48 -180q0 -58 -12.5 -104t-32 -73.5t-45 -45.5t-49 -24.5t-47.5 -6.5q-52 0 -91 24l-32 -57l-55 37l37 66q-47 65 -47 181q0 124 54.5 189t133.5 65zM158 182l97 191q-11 25 -39 25q-66 0 -66 -152q0 -33 4 -62z M273 300l-94 -183q11 -25 38 -25q34 0 49 40.5t15 100.5q0 43 -3 66z" />
<glyph unicode="&#xf9;" horiz-adv-x="452" d="M404 489v-340q0 -57 4 -149h-113l-7 52h-2q-42 -60 -113 -60q-68 0 -99.5 50t-31.5 151v296h132v-282q0 -105 49 -105q30 0 42 33q8 16 8 42v312h131zM97 689h114l69 -140h-83z" />
<glyph unicode="&#xfa;" horiz-adv-x="452" d="M252 689h114l-101 -140h-82zM404 489v-340q0 -57 4 -149h-113l-7 52h-2q-42 -60 -113 -60q-68 0 -99.5 50t-31.5 151v296h132v-282q0 -105 49 -105q30 0 42 33q8 16 8 42v312h131z" />
<glyph unicode="&#xfb;" horiz-adv-x="452" d="M181 689h91l86 -140h-90l-40 80h-2l-40 -80h-91zM404 489v-340q0 -57 4 -149h-113l-7 52h-2q-42 -60 -113 -60q-68 0 -99.5 50t-31.5 151v296h132v-282q0 -105 49 -105q30 0 42 33q8 16 8 42v312h131z" />
<glyph unicode="&#xfc;" horiz-adv-x="452" d="M140 560h-1q-24 0 -41.5 18.5t-17.5 45.5t17.5 45.5t42.5 18.5q26 0 43 -18t17 -46t-17 -46t-43 -18zM318 560h-1q-25 0 -42.5 18.5t-17.5 45.5t18 45.5t43 18.5t42 -18t17 -46t-16.5 -46t-42.5 -18zM404 489v-340q0 -57 4 -149h-113l-7 52h-2q-42 -60 -113 -60 q-68 0 -99.5 50t-31.5 151v296h132v-282q0 -105 49 -105q30 0 42 33q8 16 8 42v312h131z" />
<glyph unicode="&#xfd;" horiz-adv-x="391" d="M220 689h114l-101 -140h-82zM5 489h141l48 -254q4 -21 13 -82h2l12 80l41 256h128l-100 -377q-46 -175 -109 -250q-50 -59 -111 -77l-40 113q32 11 65 41q27 26 41 58q7 16 7 21q0 6 -4 18z" />
<glyph unicode="&#xfe;" horiz-adv-x="447" d="M45 671h130v-241h2q31 67 97 67q71 0 107.5 -71.5t36.5 -180.5q0 -122 -45 -187.5t-105 -65.5q-64 0 -90 53h-2v-237h-131v863zM176 311v-131q0 -31 8 -45q13 -36 40 -36q63 0 63 145q0 68 -16 105.5t-44 37.5q-14 0 -26 -11t-18 -28q-7 -15 -7 -37z" />
<glyph unicode="&#xff;" horiz-adv-x="391" d="M110 560h-1q-24 0 -41.5 18.5t-17.5 45.5t17.5 45.5t42.5 18.5q26 0 43 -18t17 -46t-17 -46t-43 -18zM288 560h-1q-25 0 -42.5 18.5t-17.5 45.5t18 45.5t43 18.5t42 -18t17 -46t-16.5 -46t-42.5 -18zM5 489h141l48 -254q4 -21 13 -82h2l12 80l41 256h128l-100 -377 q-46 -175 -109 -250q-50 -59 -111 -77l-40 113q32 11 65 41q27 26 41 58q7 16 7 21q0 6 -4 18z" />
<glyph unicode="&#x152;" horiz-adv-x="650" d="M619 114v-114h-263q-16 0 -40 -4q-28 -4 -42 -4q-72 0 -122.5 29t-77 80t-38 108.5t-11.5 127.5q0 150 64 247.5t191 97.5q18 0 44 -4q28 -4 37 -4h246v-114h-162v-155h154v-109h-154v-182h174zM314 114v444q-17 10 -42 10q-47 0 -79 -56.5t-32 -170.5v-7q0 -115 30 -170 q31 -58 84 -58q26 0 39 8z" />
<glyph unicode="&#x153;" horiz-adv-x="665" d="M636 203h-234q7 -111 105 -111q46 0 94 16l17 -89q-48 -27 -129 -27q-107 0 -149 83h-2q-20 -41 -57 -62t-76 -21q-80 0 -128 66.5t-48 184.5q0 124 54.5 189t132.5 65q90 0 126 -82h2q50 82 137 82q74 0 116 -61.5t42 -169.5q0 -30 -3 -63zM218 398h-1q-58 0 -58 -154 q0 -152 59 -152q58 0 58 155q0 151 -58 151zM404 288h115v7q0 45 -12 74q-13 31 -39 31q-31 0 -47 -34t-17 -78z" />
<glyph unicode="&#x178;" horiz-adv-x="402" d="M264 0h-131v258l-148 416h140l46 -161q23 -81 35 -143h2q10 63 31 146l40 158h136l-151 -411v-263zM113 712h-1q-24 0 -41 18.5t-17 45.5t17.5 45.5t41.5 18.5t41.5 -18.5t17.5 -45.5t-17.5 -45.5t-41.5 -18.5zM297 712h-1q-24 0 -41 18.5t-17 45.5t17.5 45.5t41.5 18.5 q25 0 42 -18.5t17 -45.5t-17 -45.5t-42 -18.5z" />
<glyph unicode="&#x2c6;" horiz-adv-x="300" d="M105 689h91l86 -140h-90l-40 80h-2l-40 -80h-91z" />
<glyph unicode="&#x2dc;" horiz-adv-x="300" d="M88 557h-60q0 52 18 85t53 33q21 0 57 -18q26 -16 37 -16t16 7.5t6 29.5h58q0 -114 -70 -114q-21 0 -53 16q-6 3 -14 7.5t-13.5 7t-11.5 2.5q-23 0 -23 -40z" />
<glyph unicode="&#x2000;" horiz-adv-x="442" />
<glyph unicode="&#x2001;" horiz-adv-x="885" />
<glyph unicode="&#x2002;" horiz-adv-x="442" />
<glyph unicode="&#x2003;" horiz-adv-x="885" />
<glyph unicode="&#x2004;" horiz-adv-x="295" />
<glyph unicode="&#x2005;" horiz-adv-x="221" />
<glyph unicode="&#x2006;" horiz-adv-x="147" />
<glyph unicode="&#x2007;" horiz-adv-x="147" />
<glyph unicode="&#x2008;" horiz-adv-x="110" />
<glyph unicode="&#x2009;" horiz-adv-x="177" />
<glyph unicode="&#x200a;" horiz-adv-x="49" />
<glyph unicode="&#x2010;" horiz-adv-x="259" d="M30 323h199v-94h-199v94z" />
<glyph unicode="&#x2011;" horiz-adv-x="259" d="M30 323h199v-94h-199v94z" />
<glyph unicode="&#x2013;" horiz-adv-x="500" d="M30 305h440v-90h-440v90z" />
<glyph unicode="&#x2014;" horiz-adv-x="1000" d="M30 305h940v-90h-940v90z" />
<glyph unicode="&#x2018;" horiz-adv-x="190" d="M121 433l-113 -10q37 124 112 252l68 9q-53 -153 -67 -251z" />
<glyph unicode="&#x2019;" horiz-adv-x="190" d="M71 674l113 10q-41 -131 -113 -252l-67 -9q53 153 67 251z" />
<glyph unicode="&#x201a;" horiz-adv-x="190" d="M71 -100l-67 -9q54 153 67 250l113 10q-40 -129 -113 -251z" />
<glyph unicode="&#x201c;" horiz-adv-x="337" d="M117 433l-113 -10q37 124 112 252l68 9q-53 -153 -67 -251zM272 433l-113 -10q41 131 113 252l67 9q-53 -156 -67 -251z" />
<glyph unicode="&#x201d;" horiz-adv-x="337" d="M67 674l113 10q-37 -124 -112 -252l-68 -9q53 153 67 251zM222 674l113 10q-39 -130 -112 -252l-68 -9q53 153 67 251z" />
<glyph unicode="&#x201e;" horiz-adv-x="337" d="M68 -100l-68 -9q54 153 67 250l113 10q-36 -121 -112 -251zM223 -100l-68 -9q54 153 67 250l113 10q-38 -128 -112 -251z" />
<glyph unicode="&#x2022;" horiz-adv-x="287" d="M143 158h-1q-44 0 -74 30t-30 78q0 50 30 80.5t76 30.5q45 0 75 -30t30 -80q0 -49 -29.5 -79t-76.5 -30z" />
<glyph unicode="&#x2026;" horiz-adv-x="1000" d="M166 -8h-1q-31 0 -53 24t-22 63q0 37 23 62t54 25q32 0 54 -24t22 -63q0 -40 -21 -63.5t-56 -23.5zM500 -8h-1q-32 0 -53.5 24t-21.5 63q0 37 23 62t54 25q32 0 54 -24t22 -63q0 -40 -21 -63.5t-56 -23.5zM834 -8h-1q-32 0 -53.5 24t-21.5 63q0 37 23 62t54 25 q32 0 54 -24t22 -63q0 -40 -21 -63.5t-56 -23.5z" />
<glyph unicode="&#x202f;" horiz-adv-x="177" />
<glyph unicode="&#x2039;" horiz-adv-x="221" d="M216 437l-108 -185l108 -185h-95l-105 185l105 185h95z" />
<glyph unicode="&#x203a;" horiz-adv-x="221" d="M113 252l-108 185h94l106 -185l-105 -185h-95z" />
<glyph unicode="&#x205f;" horiz-adv-x="221" />
<glyph unicode="&#x20ac;" d="M392 123l14 -108q-49 -23 -105 -23q-99 0 -159 72q-54 63 -67 174h-51v67h46v12q0 6 0.5 18t0.5 17h-47v68h54q11 83 54 143q63 95 181 95q45 0 92 -20l-21 -109q-32 17 -66 17q-52 0 -79 -42q-22 -30 -30 -84h153v-68h-160q-1 -10 -1 -36v-11h161v-67h-156q5 -59 29 -93 q26 -41 81 -41q38 0 76 19z" />
<glyph unicode="&#x2122;" horiz-adv-x="539" d="M25 674h190v-65h-57v-208h-77v208h-56v65zM526 401h-70l-4 120q0 64 -1 106h-3q-7 -46 -17 -106l-20 -115h-70l-17 116q-8 67 -13 105h-3q-3 -102 -3 -106l-5 -120h-67l13 273h111l13 -65q6 -39 11 -88h1q1 12 13 87l15 66h104z" />
</font>
</defs>
</svg>
